 http://img36.imageshack.us/img36/2773/thesmurfs2011.jpg

Country.......: USA
Genre.........: Fantasy, Animation, Adventure, Comedy, Family
Date release..: 24.07.2011 [World]
Director......: Raja Gosnell
Writers.......: Peyo, J. David Stem
Duration......: 93 min.
More..........: http://www.imdb.com/title/tt0472181
Trailer.......: http://www.imdb.com/video/imdb/vi4133133593
Trailer.......:

Pilot :
When the evil wizard Gargamel chases the tiny blue Smurfs out of their village, they tumble from their magical world and into ours. 

Cats :
Hank Azaria   	 ...  	Gargamel
Neil Patrick Harris 	... 	Patrick Winslow
Jayma Mays 	... 	Grace Winslow
Sofia Vergara 	... 	Odile
Tim Gunn 	... 	Henri
Madison McKinley 	... 	Model
Meg Phillips 	... 	Model
Julie Chang 	... 	Newscaster
Roger Clark 	... 	Newscaster
Mark Doherty 	... 	Bluetooth Businessman
Minglie Chen 	... 	Young Woman
Sean Kenin 	... 	Guy in Plaid Shirt
Victor Pagan 	... 	Bum
Mahadeo Shivraj 	... 	Cabbie
Adria Baratta 	... 	Anjelou Employee

Data Technical :
!!! SAMPLE !!!
Audio.....: English
Subtitles.: None
Format                           : AVI
Format/Info                      : Audio Video Interleave
File size                        : 1.35 GiB
Duration                         : 1h 33mn
Overall bit rate                 : 2 072 Kbps
Writing application              : Nandub v1.0rc2
Writing library                  : Nandub build 1853/release
Video
ID                               : 0
Format                           : MPEG-4 Visual
Format profile                   : Advanced Simple@L5
Format settings, BVOP            : Yes
Format settings, QPel            : Yes
Format settings, GMC             : No warppoints
Format settings, Matrix          : Default (H.263)
Muxing mode                      : Packed bitstream
Codec ID                         : XVID
Codec ID/Hint                    : XviD
Duration                         : 1h 33mn
Bit rate                         : 1 804 Kbps
Width                            : 720 pixels
Height                           : 358 pixels
Display aspect ratio             : 2.011
Frame rate                       : 29.970 fps
Color space                      : YUV
Chroma subsampling               : 4:2:0
Bit depth                        : 8 bits
Scan type                        : Progressive
Bits/(Pixel*Frame)               : 0.234
Stream size                      : 1.18 GiB (87%)
Writing library                  : XviD 1.2.1 (UTC 2008-12-04)
Audio
ID                               : 1
Format                           : AC-3
Format/Info                      : Audio Coding 3
Mode extension                   : CM (complete main)
Codec ID                         : 2000
Duration                         : 1h 33mn
Bit rate mode                    : Constant
Bit rate                         : 256 Kbps
Channel(s)                       : 2 channels
Channel positions                : Front: L R
Sampling rate                    : 48.0 KHz
Bit depth                        : 16 bits
Video delay                      : 28ms
Stream size                      : 171 MiB (12%)
Alignment                        : Split accross interleaves
Interleave, duration             : 33 ms (1.00 video frame)
Interleave, preload duration     : 500 ms

Screen : 
http://img192.imageshack.us/img192/889/thesmurfs2011s1.jpg 
http://img41.imageshack.us/img41/5779/thesmurfs2011s2.jpg 
http://img841.imageshack.us/img841/7904/thesmurfs2011s3.jpg 
http://img708.imageshack.us/img708/7536/thesmurfs2011s4.jpg 
http://img696.imageshack.us/img696/5630/thesmurfs2011s5.jpg